<svg width="45" height="56" viewBox="0 0 45 56" fill="none" xmlns="http://www.w3.org/2000/svg">
<path d="M43.5281 17.9904C48 30 36 49 22.2477 46.377C9.32989 43.9131 0 29.1506 0 17.9904C0 6.83023 11.5 5.00002 22.2477 5C35.5 6 41.8742 13.549 43.5281 17.9904Z" fill="white"/>
<path d="M17.816 17.56C17.816 16.336 17.648 15.436 17.312 14.86C16.976 14.26 16.304 13.96 15.296 13.96H14.576V13.24H28.94C30.98 13.24 32 14.2 32 16.12V18.82H31.28C31.28 16.06 29.78 14.68 26.78 14.68H21.056V24.22H29.192V25.66H21.056V37H17.816V17.56Z" fill="#2CD33C"/>
</svg>
